:FULLY-SPECIFIED
:FORCE-ALL-JOINTS-BE-3DOF
:DEGREES
408
root 4.57069 16.2201 -11.1921 1.60266 -38.5119 -1.40082
lfemur -28.7559 7.0513 -10.084
ltibia 45.5626 0 0
lfoot -11.9425 14.3014 0
ltoes 1.42784 0 0
rfemur -41.8415 -25.462 26.0518
rtibia 86.2087 0 0
rfoot 4.68444 -3.98425 0
rtoes 38.7436 0 0
lowerback 5.67154 4.67596 -0.755797
upperback 1.70872 6.12055 -2.25057
thorax -1.23736 3.05085 -2.28868
lowerneck -6.26695 2.46807 7.41501
upperneck 3.81115 2.64284 0.17227
head 2.41966 1.43282 -1.12288
lclavicle -1.56472e-13 -4.88442e-15 0
lhumerus -45.5451 -17.7744 94.1803
lradius 51.2988 0 0
lwrist 19.3373 0 0
lhand -19.2092 2.71633 0
lfingers 7.12502 0 0
lthumb 7.10311 32.5746 0
rclavicle -1.56472e-13 -4.88442e-15 0
rhumerus -45.3749 10.0983 -91.569
rradius 64.3238 0 0
rwrist 7.9606 0 0
rhand -19.3526 -17.5477 0
rfingers 7.12502 0 0
rthumb 6.96465 -767.408 0
409
root 4.51305 16.1953 -11.0919 1.4378 -38.7159 -1.33582
lfemur -28.4809 7.57201 -10.0682
ltibia 46.3036 0 0
lfoot -12.7674 13.9215 0
ltoes 1.60728 0 0
rfemur -43.1274 -25.0452 25.753
rtibia 85.3912 0 0
rfoot 4.27904 -3.17161 0
rtoes 37.3365 0 0
lowerback 5.81003 4.63265 -0.687051
upperback 1.7427 6.06377 -2.2654
thorax -1.27257 3.02217 -2.34847
lowerneck -6.26677 2.68802 7.58321
upperneck 3.84767 2.93857 -0.13691
head 2.45881 1.57464 -1.24098
lclavicle -1.49841e-13 -3.40774e-15 0
lhumerus -45.4458 -17.6961 94.1916
lradius 50.986 0 0
lwrist 18.8843 0 0
lhand -19.6399 2.32851 0
lfingers 7.12502 0 0
lthumb 6.68735 32.1987 0
rclavicle -1.49841e-13 -3.40774e-15 0
rhumerus -45.3331 9.87803 -91.3271
rradius 64.707 0 0
rwrist 8.15895 0 0
rhand -19.9572 -17.38 0
rfingers 7.12502 0 0
rthumb 6.38098 -767.256 0
410
root 4.45541 16.1705 -10.9916 1.27295 -38.9199 -1.27081
lfemur -28.206 8.09273 -10.0524
ltibia 47.0446 0 0
lfoot -13.5924 13.5415 0
ltoes 1.78673 0 0
rfemur -44.4133 -24.6283 25.4543
rtibia 84.5736 0 0
rfoot 3.87364 -2.35898 0
rtoes 35.9295 0 0
lowerback 5.94852 4.58933 -0.618305
upperback 1.77667 6.00698 -2.28024
thorax -1.30778 2.9935 -2.40826
lowerneck -6.2666 2.90798 7.75141
upperneck 3.88418 3.23429 -0.44609
head 2.49795 1.71646 -1.35909
lclavicle -1.4321e-13 -1.93105e-15 0
lhumerus -45.3464 -17.6178 94.2029
lradius 50.6731 0 0
lwrist 18.4313 0 0
lhand -20.0705 1.94069 0
lfingers 7.12502 0 0
lthumb 6.27158 31.8228 0
rclavicle -1.4321e-13 -1.93105e-15 0
rhumerus -45.2913 9.65775 -91.0851
rradius 65.0902 0 0
rwrist 8.3573 0 0
rhand -20.5617 -17.2122 0
rfingers 7.12502 0 0
rthumb 5.7973 -767.103 0
411
root 4.39777 16.1457 -10.8914 1.10809 -39.1239 -1.2058
lfemur -27.9311 8.61345 -10.0366
ltibia 47.7855 0 0
lfoot -14.4173 13.1616 0
ltoes 1.96618 0 0
rfemur -45.6992 -24.2114 25.1556
rtibia 83.7561 0 0
rfoot 3.46825 -1.54634 0
rtoes 34.5224 0 0
lowerback 6.087 4.54602 -0.54956
upperback 1.81064 5.95019 -2.29508
thorax -1.34298 2.96483 -2.46804
lowerneck -6.26642 3.12794 7.9196
upperneck 3.92069 3.53001 -0.75527
head 2.53709 1.85828 -1.47719
lclavicle -1.3658e-13 -4.54367e-16 0
lhumerus -45.2471 -17.5395 94.2142
lradius 50.3603 0 0
lwrist 17.9783 0 0
lhand -20.5012 1.55287 0
lfingers 7.12502 0 0
lthumb 5.85582 31.447 0
rclavicle -1.3658e-13 -4.54367e-16 0
rhumerus -45.2495 9.43747 -90.8432
rradius 65.4734 0 0
rwrist 8.55565 0 0
rhand -21.1662 -17.0445 0
rfingers 7.12502 0 0
rthumb 5.21363 -766.951 0
412
root 4.34013 16.1209 -10.7911 0.943231 -39.3279 -1.14079
lfemur -27.6562 9.13417 -10.0207
ltibia 48.5265 0 0
lfoot -15.2423 12.7816 0
ltoes 2.14563 0 0
rfemur -46.9851 -23.7945 24.8569
rtibia 82.9385 0 0
rfoot 3.06285 -0.733707 0
rtoes 33.1154 0 0
lowerback 6.22549 4.5027 -0.480814
upperback 1.84461 5.8934 -2.30992
thorax -1.37819 2.93616 -2.52783
lowerneck -6.26625 3.3479 8.0878
upperneck 3.9572 3.82573 -1.06445
head 2.57623 2.0001 -1.5953
lclavicle -1.29949e-13 1.02232e-15 0
lhumerus -45.1477 -17.4612 94.2255
lradius 50.0474 0 0
lwrist 17.5253 0 0
lhand -20.9318 1.16505 0
lfingers 7.12502 0 0
lthumb 5.44005 31.0711 0
rclavicle -1.29949e-13 1.02232e-15 0
rhumerus -45.2077 9.21719 -90.6012
rradius 65.8566 0 0
rwrist 8.754 0 0
rhand -21.7707 -16.8767 0
rfingers 7.12502 0 0
rthumb 4.62995 -766.798 0
413
root 4.28249 16.0961 -10.6909 0.778374 -39.5319 -1.07579
lfemur -27.3812 9.65488 -10.0049
ltibia 49.2675 0 0
lfoot -16.0672 12.4017 0
ltoes 2.32507 0 0
rfemur -48.271 -23.3777 24.5581
rtibia 82.121 0 0
rfoot 2.65745 0.0789274 0
rtoes 31.7083 0 0
lowerback 6.36398 4.45939 -0.412068
upperback 1.87859 5.83662 -2.32475
thorax -1.4134 2.90748 -2.58762
lowerneck -6.26607 3.56785 8.256
upperneck 3.99372 4.12146 -1.37363
head 2.61538 2.14192 -1.7134
lclavicle -1.23318e-13 2.499e-15 0
lhumerus -45.0484 -17.3829 94.2368
lradius 49.7346 0 0
lwrist 17.0723 0 0
lhand -21.3625 0.777233 0
lfingers 7.12502 0 0
lthumb 5.02429 30.6952 0
rclavicle -1.23318e-13 2.499e-15 0
rhumerus -45.1659 8.9969 -90.3593
rradius 66.2398 0 0
rwrist 8.95235 0 0
rhand -22.3753 -16.709 0
rfingers 7.12502 0 0
rthumb 4.04628 -766.646 0
414
root 4.22485 16.0713 -10.5906 0.613516 -39.7359 -1.01078
lfemur -27.1063 10.1756 -9.98912
ltibia 50.0085 0 0
lfoot -16.8922 12.0217 0
ltoes 2.50452 0 0
rfemur -49.5569 -22.9608 24.2594
rtibia 81.3034 0 0
rfoot 2.25205 0.891562 0
rtoes 30.3013 0 0
lowerback 6.50247 4.41607 -0.343322
upperback 1.91256 5.77983 -2.33959
thorax -1.44861 2.87881 -2.64741
lowerneck -6.2659 3.78781 8.4242
upperneck 4.03023 4.41718 -1.68281
head 2.65452 2.28374 -1.83151
lclavicle -1.16687e-13 3.97569e-15 0
lhumerus -44.949 -17.3046 94.2481
lradius 49.4217 0 0
lwrist 16.6193 0 0
lhand -21.7931 0.389413 0
lfingers 7.12502 0 0
lthumb 4.60852 30.3193 0
rclavicle -1.16687e-13 3.97569e-15 0
rhumerus -45.1241 8.77662 -90.1173
rradius 66.623 0 0
rwrist 9.1507 0 0
rhand -22.9798 -16.5412 0
rfingers 7.12502 0 0
rthumb 3.4626 -766.493 0
415
root 4.14256 16.0582 -10.5187 0.898055 -38.8219 -1.54989
lfemur -27.1581 10.0329 -9.37687
ltibia 50.4527 0 0
lfoot -17.3225 11.4407 0
ltoes 1.70462 0 0
rfemur -48.5782 -20.8433 22.4661
rtibia 77.9569 0 0
rfoot 2.6785 0.704952 0
rtoes 27.7999 0 0
lowerback 6.53775 4.21134 0.0445854
upperback 1.92748 5.53739 -2.19098
thorax -1.44635 2.75828 -2.69477
lowerneck -6.29581 3.84548 8.53198
upperneck 4.04738 4.49042 -1.82847
head 2.67989 2.31793 -1.89599
lclavicle -1.07713e-13 8.40575e-15 0
lhumerus -44.8082 -17.7365 94.4072
lradius 49.2781 0 0
lwrist 16.2252 0 0
lhand -21.7014 0.333854 0
lfingers 7.12502 0 0
lthumb 4.69707 30.2617 0
rclavicle -1.07713e-13 8.40575e-15 0
rhumerus -45.2595 8.29532 -89.9137
rradius 66.9331 0 0
rwrist 9.54274 0 0
rhand -23.8571 -17.0439 0
rfingers 7.12502 0 0
rthumb 2.6153 -766.998 0
416
root 4.06027 16.0451 -10.4467 1.18259 -37.9079 -2.08901
lfemur -27.2099 9.89018 -8.76462
ltibia 50.8969 0 0
lfoot -17.7528 10.8598 0
ltoes 0.90472 0 0
rfemur -47.5994 -18.7259 20.6729
rtibia 74.6103 0 0
rfoot 3.10496 0.518342 0
rtoes 25.2984 0 0
lowerback 6.57302 4.00661 0.432493
upperback 1.94239 5.29494 -2.04236
thorax -1.44409 2.63775 -2.74214
lowerneck -6.32572 3.90315 8.63975
upperneck 4.06453 4.56367 -1.97414
head 2.70526 2.35212 -1.96047
lclavicle -9.87395e-14 1.28358e-14 0
lhumerus -44.6674 -18.1684 94.5664
lradius 49.1345 0 0
lwrist 15.8311 0 0
lhand -21.6097 0.278296 0
lfingers 7.12502 0 0
lthumb 4.78563 30.2041 0
rclavicle -9.87395e-14 1.28358e-14 0
rhumerus -45.3949 7.81403 -89.71
rradius 67.2432 0 0
rwrist 9.93479 0 0
rhand -24.7344 -17.5467 0
rfingers 7.12502 0 0
rthumb 1.76799 -767.502 0
417
root 3.97798 16.032 -10.3748 1.46713 -36.9939 -2.62812
lfemur -27.2617 9.74747 -8.15237
ltibia 51.3411 0 0
lfoot -18.1831 10.2788 0
ltoes 0.10482 0 0
rfemur -46.6207 -16.6084 18.8796
rtibia 71.2638 0 0
rfoot 3.53141 0.331732 0
rtoes 22.797 0 0
lowerback 6.6083 3.80188 0.8204
upperback 1.95731 5.0525 -1.89375
thorax -1.44183 2.51722 -2.7895
lowerneck -6.35563 3.96082 8.74753
upperneck 4.08168 4.63691 -2.1198
head 2.73063 2.38631 -2.02495
lclavicle -8.97657e-14 1.72659e-14 0
lhumerus -44.5266 -18.6003 94.7255
lradius 48.9909 0 0
lwrist 15.437 0 0
lhand -21.518 0.222737 0
lfingers 7.12502 0 0
lthumb 4.87418 30.1465 0
rclavicle -8.97657e-14 1.72659e-14 0
rhumerus -45.5303 7.33273 -89.5064
rradius 67.5533 0 0
rwrist 10.3268 0 0
rhand -25.6117 -18.0494 0
rfingers 7.12502 0 0
rthumb 0.920691 -768.007 0
418
root 3.8957 16.0189 -10.3028 1.75167 -36.0798 -3.16723
lfemur -27.3136 9.60475 -7.54011
ltibia 51.7853 0 0
lfoot -18.6134 9.69781 0
ltoes -0.69508 0 0
rfemur -45.6419 -14.491 17.0864
rtibia 67.9173 0 0
rfoot 3.95787 0.145122 0
rtoes 20.2955 0 0
lowerback 6.64358 3.59714 1.20831
upperback 1.97222 4.81006 -1.74513
thorax -1.43958 2.39669 -2.83687
lowerneck -6.38553 4.0185 8.8553
upperneck 4.09884 4.71015 -2.26546
head 2.756 2.42049 -2.08943
lclavicle -8.07919e-14 2.16959e-14 0
lhumerus -44.3858 -19.0321 94.8847
lradius 48.8472 0 0
lwrist 15.0428 0 0
lhand -21.4263 0.167178 0
lfingers 7.12502 0 0
lthumb 4.96273 30.0888 0
rclavicle -8.07919e-14 2.16959e-14 0
rhumerus -45.6658 6.85144 -89.3027
rradius 67.8633 0 0
rwrist 10.7189 0 0
rhand -26.489 -18.5522 0
rfingers 7.12502 0 0
rthumb 0.0733886 -768.512 0
419
root 3.81341 16.0058 -10.2309 2.03621 -35.1658 -3.70634
lfemur -27.3654 9.46204 -6.92786
ltibia 52.2295 0 0
lfoot -19.0437 9.11684 0
ltoes -1.49498 0 0
rfemur -44.6632 -12.3735 15.2931
rtibia 64.5708 0 0
rfoot 4.38432 -0.041488 0
rtoes 17.7941 0 0
lowerback 6.67886 3.39241 1.59622
upperback 1.98714 4.56762 -1.59652
thorax -1.43732 2.27616 -2.88423
lowerneck -6.41544 4.07617 8.96308
upperneck 4.11599 4.78339 -2.41112
head 2.78137 2.45468 -2.15391
lclavicle -7.18181e-14 2.6126e-14 0
lhumerus -44.245 -19.464 95.0438
lradius 48.7036 0 0
lwrist 14.6487 0 0
lhand -21.3346 0.11162 0
lfingers 7.12502 0 0
lthumb 5.05128 30.0312 0
rclavicle -7.18181e-14 2.6126e-14 0
rhumerus -45.8012 6.37014 -89.0991
rradius 68.1734 0 0
rwrist 11.1109 0 0
rhand -27.3663 -19.0549 0
rfingers 7.12502 0 0
rthumb -0.773914 -769.017 0
420
root 3.73112 15.9927 -10.1589 2.32075 -34.2518 -4.24546
lfemur -27.4172 9.31933 -6.31561
ltibia 52.6737 0 0
lfoot -19.474 8.53587 0
ltoes -2.29488 0 0
rfemur -43.6844 -10.2561 13.4999
rtibia 61.2242 0 0
rfoot 4.81078 -0.228098 0
rtoes 15.2926 0 0
lowerback 6.71413 3.18768 1.98412
upperback 2.00205 4.32517 -1.4479
thorax -1.43506 2.15563 -2.9316
lowerneck -6.44535 4.13384 9.07085
upperneck 4.13314 4.85664 -2.55679
head 2.80674 2.48887 -2.21839
lclavicle -6.28444e-14 3.0556e-14 0
lhumerus -44.1042 -19.8959 95.203
lradius 48.56 0 0
lwrist 14.2546 0 0
lhand -21.2429 0.056061 0
lfingers 7.12502 0 0
lthumb 5.13984 29.9736 0
rclavicle -6.28444e-14 3.0556e-14 0
rhumerus -45.9366 5.88885 -88.8954
rradius 68.4835 0 0
rwrist 11.503 0 0
rhand -28.2436 -19.5577 0
rfingers 7.12502 0 0
rthumb -1.62122 -769.521 0
